<svg version="1.2" xmlns="http://www.w3.org/2000/svg" viewBox="0 0 720 720" width="32" height="32">
	<title>Presentación1</title>
	<style>
		.s0 { fill: #000000 } 
		.s1 { fill: #6366f1 } 
		.s2 { fill: #ff0000 } 
	</style>
	<g id="Background">
		<path id="Path 1" class="s0" d="m125 22.1c-4.1 0.5-10.2 1.6-13.5 2.5-3.3 0.8-8.9 2.4-12.5 3.6-3.6 1.1-10.8 4.2-16 6.8-5.2 2.7-12.9 7.2-17 10.1-4.1 2.9-11.6 9.3-16.5 14.3-5 5-11.3 12.5-14.2 16.6-2.8 4.1-7.1 11.5-9.6 16.5-2.4 4.9-5.6 12.6-7.1 17-1.5 4.4-3.4 11.8-4.4 16.5-1.6 7.9-1.7 25-1.7 240.5v232c3.4 15.5 5.8 23.8 7.5 28.5 1.7 4.7 4.9 11.9 7.1 16 2.3 4.1 6.6 11 9.7 15.4 3.2 4.3 9.8 11.7 14.7 16.5 4.9 4.8 12.8 11.2 17.5 14.3 4.7 3.1 11.3 7 14.8 8.7 3.4 1.7 10.1 4.4 14.9 6.1 4.9 1.6 11.9 3.7 15.8 4.7 6.5 1.6 22.1 1.7 238.5 2 196.8 0.3 232.9 0.1 241-1.1 5.2-0.8 14-2.9 19.5-4.6 5.5-1.8 14.3-5.4 19.5-8 5.2-2.7 12.5-7 16.1-9.7 3.7-2.6 8.9-6.9 11.5-9.4 2.7-2.5 7.4-7.2 10.4-10.5 3-3.3 7.6-9.1 10.1-12.9 2.5-3.9 6.5-10.7 8.8-15.3 2.2-4.5 5.6-13.3 7.5-19.5 1.8-6.1 3.9-15.7 4.6-21.2 0.9-7.5 1.1-66 0.8-238.5-0.3-215.3-0.5-228.9-2.1-236-1-4.1-3.2-11.6-4.9-16.5-1.7-5-4.4-11.7-6.1-15-1.6-3.3-5.3-9.6-8.2-14-2.9-4.4-8.6-11.6-12.6-15.9-4.1-4.4-10.3-10.3-13.9-13.1-3.6-2.9-9.6-7.1-13.5-9.5-3.9-2.3-9.3-5.3-12-6.6-2.8-1.2-7.5-3.2-10.5-4.3-3-1.1-9.1-2.9-13.5-4-4.4-1.1-11.4-2.5-15.5-3-4.5-0.6-97.5-0.9-232.5-0.9-124.3 0-228.4 0.5-232.5 0.9z"/>
		<path id="Path 2" class="s1" d="m132.5 61.7c-2.2 0.2-7.1 1-11 1.8-3.9 0.8-9.9 2.6-13.5 4-3.6 1.4-9.6 4.4-13.5 6.7-4.3 2.5-10.6 7.8-16.5 13.7-6.6 6.7-10.9 12-14 17.6-2.4 4.4-5.7 11.7-7.2 16.2-1.6 4.6-3.3 12.5-3.8 17.5-0.8 6.3-1 81.6-0.8 233.3l0.3 224c3.5 12.4 6.7 20.5 9.5 26 3 6.1 7.5 12.8 11.2 17.2 3.5 4 9.2 9.6 12.8 12.4 3.6 2.8 10.6 7.1 15.5 9.6 4.9 2.4 12.4 5.4 16.5 6.6l7.5 2.2c434.1 0.5 457.9 0.4 465.5-1.1 4.7-0.8 11.6-2.8 15.5-4.2 3.9-1.5 10.6-5 15-7.7 4.4-2.8 11.2-8.1 15-12 3.9-3.9 9.3-10.4 12-14.5 2.7-4.1 6.1-10.4 7.6-14 1.4-3.6 3.5-9.6 4.5-13.5 1.8-6.8 1.9-14.4 1.9-238v-231c-4.3-13.6-7-20.5-8.9-24.3-1.9-3.7-5.4-9.4-7.8-12.7-2.5-3.3-6.9-8.4-9.9-11.3-3-3-8.5-7.5-12.4-10.1-3.9-2.6-10.6-6.2-15-8-4.4-1.8-10.9-4.1-14.5-4.9-5.8-1.5-29.1-1.6-232-1.8-124 0-227.3 0.1-229.5 0.3z"/>
		<path id="Path 3" class="s0" d="m205.9 137.5l-23.4 27.4 0.5 160.1-34.5-0.1-30.5 28.6-0.1 26 28.6 27.4 36.5 0.1v160.5l46 54.5 264.5-0.1 54-49c1.2-13.5 1.4-44.9 1.3-78.6l-0.3-61.2-72 106.9-163-0.1-31.5-45.9v-87h158v-82h-158v-83l34.5-49.9h160l72 107c0.5-89.6 0.3-121-0.1-127.6l-0.7-12-54.7-49.5h-263.7z"/>
		<path id="Path 4" class="s2" d="m212 142.9l-21.2 25 0.2 165.1h-39.5l-25.5 24 0.2 19.5 23.8 22.5h41v165.5l41.5 49.4 257.5 0.1c30.5-27.5 41.8-37.8 44.8-40.5l5.4-5c0.8-85.3 0.8-109.8 0.6-109.5-0.3 0.3-13.8 20.3-30 44.5-16.2 24.2-30.2 44.3-30.9 44.6-0.8 0.3-5.6 0.4-10.7 0.2-5-0.2-43.1-0.3-84.5-0.3h-75.2c-27.1-39.1-32.8-46.4-33.9-46.3-1.5 0.3-1.6-4.3-1.6-51.2v-51.5h158v-66h-158c0-94.8 0.1-99 1.6-98.8 1.2 0.2 7.2-7.6 19.3-25l17.6-25.2 168-0.1c19.6 29.2 33.1 49.1 42.5 63.1 9.5 14 17.4 25.7 17.7 26 0.3 0.3 0.3-24.3 0-54.5l-0.5-55c-3.7-3.3-14.9-13.5-27.5-24.9l-22.7-20.6h-256.9z"/>
	</g>
</svg>